<mxfile host="app.diagrams.net" modified="2024-01-16T09:29:32.748Z" agent="Mozilla/5.0 (Macintosh; Intel Mac OS X 10_15_7) AppleWebKit/605.1.15 (KHTML, like Gecko) Version/17.2.1 Safari/605.1.15" etag="tvqTGET44SPYMejIWCB9" version="22.1.18" type="github">
  <diagram name="第 1 页" id="uwW60R4ZzoaPy8x_xTy0">
    <mxGraphModel dx="1434" dy="739" grid="1" gridSize="10" guides="1" tooltips="1" connect="1" arrows="1" fold="1" page="1" pageScale="1" pageWidth="827" pageHeight="1169" math="0" shadow="0">
      <root>
        <mxCell id="0" />
        <mxCell id="1" parent="0" />
        <mxCell id="IZtUaJsD1v50YrY6wFHG-1" value="terminal-server" style="shape=umlLifeline;perimeter=lifelinePerimeter;whiteSpace=wrap;html=1;container=1;dropTarget=0;collapsible=0;recursiveResize=0;outlineConnect=0;portConstraint=eastwest;newEdgeStyle={&quot;curved&quot;:0,&quot;rounded&quot;:0};" vertex="1" parent="1">
          <mxGeometry x="90" y="80" width="100" height="710" as="geometry" />
        </mxCell>
        <mxCell id="IZtUaJsD1v50YrY6wFHG-20" value="" style="html=1;points=[[0,0,0,0,5],[0,1,0,0,-5],[1,0,0,0,5],[1,1,0,0,-5]];perimeter=orthogonalPerimeter;outlineConnect=0;targetShapes=umlLifeline;portConstraint=eastwest;newEdgeStyle={&quot;curved&quot;:0,&quot;rounded&quot;:0};" vertex="1" parent="IZtUaJsD1v50YrY6wFHG-1">
          <mxGeometry x="40" y="54" width="10" height="50" as="geometry" />
        </mxCell>
        <mxCell id="IZtUaJsD1v50YrY6wFHG-23" value="" style="html=1;points=[[0,0,0,0,5],[0,1,0,0,-5],[1,0,0,0,5],[1,1,0,0,-5]];perimeter=orthogonalPerimeter;outlineConnect=0;targetShapes=umlLifeline;portConstraint=eastwest;newEdgeStyle={&quot;curved&quot;:0,&quot;rounded&quot;:0};" vertex="1" parent="IZtUaJsD1v50YrY6wFHG-1">
          <mxGeometry x="40" y="640" width="10" height="50" as="geometry" />
        </mxCell>
        <mxCell id="IZtUaJsD1v50YrY6wFHG-2" value="schedule-engine-server" style="shape=umlLifeline;perimeter=lifelinePerimeter;whiteSpace=wrap;html=1;container=1;dropTarget=0;collapsible=0;recursiveResize=0;outlineConnect=0;portConstraint=eastwest;newEdgeStyle={&quot;curved&quot;:0,&quot;rounded&quot;:0};" vertex="1" parent="1">
          <mxGeometry x="240" y="80" width="100" height="700" as="geometry" />
        </mxCell>
        <mxCell id="IZtUaJsD1v50YrY6wFHG-24" value="" style="html=1;points=[[0,0,0,0,5],[0,1,0,0,-5],[1,0,0,0,5],[1,1,0,0,-5]];perimeter=orthogonalPerimeter;outlineConnect=0;targetShapes=umlLifeline;portConstraint=eastwest;newEdgeStyle={&quot;curved&quot;:0,&quot;rounded&quot;:0};" vertex="1" parent="IZtUaJsD1v50YrY6wFHG-2">
          <mxGeometry x="46" y="74" width="10" height="80" as="geometry" />
        </mxCell>
        <mxCell id="IZtUaJsD1v50YrY6wFHG-30" value="" style="html=1;points=[[0,0,0,0,5],[0,1,0,0,-5],[1,0,0,0,5],[1,1,0,0,-5]];perimeter=orthogonalPerimeter;outlineConnect=0;targetShapes=umlLifeline;portConstraint=eastwest;newEdgeStyle={&quot;curved&quot;:0,&quot;rounded&quot;:0};" vertex="1" parent="IZtUaJsD1v50YrY6wFHG-2">
          <mxGeometry x="45" y="450" width="10" height="235" as="geometry" />
        </mxCell>
        <mxCell id="IZtUaJsD1v50YrY6wFHG-3" value="rds" style="shape=umlLifeline;perimeter=lifelinePerimeter;whiteSpace=wrap;html=1;container=1;dropTarget=0;collapsible=0;recursiveResize=0;outlineConnect=0;portConstraint=eastwest;newEdgeStyle={&quot;curved&quot;:0,&quot;rounded&quot;:0};" vertex="1" parent="1">
          <mxGeometry x="394" y="80" width="100" height="700" as="geometry" />
        </mxCell>
        <mxCell id="IZtUaJsD1v50YrY6wFHG-31" value="" style="html=1;points=[[0,0,0,0,5],[0,1,0,0,-5],[1,0,0,0,5],[1,1,0,0,-5]];perimeter=orthogonalPerimeter;outlineConnect=0;targetShapes=umlLifeline;portConstraint=eastwest;newEdgeStyle={&quot;curved&quot;:0,&quot;rounded&quot;:0};" vertex="1" parent="IZtUaJsD1v50YrY6wFHG-3">
          <mxGeometry x="45" y="500" width="10" height="160" as="geometry" />
        </mxCell>
        <mxCell id="IZtUaJsD1v50YrY6wFHG-33" value="" style="html=1;points=[[0,0,0,0,5],[0,1,0,0,-5],[1,0,0,0,5],[1,1,0,0,-5]];perimeter=orthogonalPerimeter;outlineConnect=0;targetShapes=umlLifeline;portConstraint=eastwest;newEdgeStyle={&quot;curved&quot;:0,&quot;rounded&quot;:0};" vertex="1" parent="IZtUaJsD1v50YrY6wFHG-3">
          <mxGeometry x="49" y="100" width="10" height="50" as="geometry" />
        </mxCell>
        <mxCell id="IZtUaJsD1v50YrY6wFHG-4" value="NXMQ" style="shape=umlLifeline;perimeter=lifelinePerimeter;whiteSpace=wrap;html=1;container=1;dropTarget=0;collapsible=0;recursiveResize=0;outlineConnect=0;portConstraint=eastwest;newEdgeStyle={&quot;curved&quot;:0,&quot;rounded&quot;:0};" vertex="1" parent="1">
          <mxGeometry x="540" y="80" width="100" height="700" as="geometry" />
        </mxCell>
        <mxCell id="IZtUaJsD1v50YrY6wFHG-32" value="" style="html=1;points=[[0,0,0,0,5],[0,1,0,0,-5],[1,0,0,0,5],[1,1,0,0,-5]];perimeter=orthogonalPerimeter;outlineConnect=0;targetShapes=umlLifeline;portConstraint=eastwest;newEdgeStyle={&quot;curved&quot;:0,&quot;rounded&quot;:0};" vertex="1" parent="IZtUaJsD1v50YrY6wFHG-4">
          <mxGeometry x="50" y="455" width="10" height="50" as="geometry" />
        </mxCell>
        <mxCell id="IZtUaJsD1v50YrY6wFHG-5" value="归还实例" style="html=1;verticalAlign=bottom;endArrow=block;curved=0;rounded=0;" edge="1" parent="1">
          <mxGeometry width="80" relative="1" as="geometry">
            <mxPoint x="139" y="160" as="sourcePoint" />
            <mxPoint x="288.5" y="160" as="targetPoint" />
          </mxGeometry>
        </mxCell>
        <mxCell id="IZtUaJsD1v50YrY6wFHG-6" value="查询实例绑定信息" style="html=1;verticalAlign=bottom;endArrow=block;curved=0;rounded=0;" edge="1" parent="1" target="IZtUaJsD1v50YrY6wFHG-3">
          <mxGeometry width="80" relative="1" as="geometry">
            <mxPoint x="300" y="190" as="sourcePoint" />
            <mxPoint x="370" y="190" as="targetPoint" />
          </mxGeometry>
        </mxCell>
        <mxCell id="IZtUaJsD1v50YrY6wFHG-7" value="返回实例绑定信息" style="html=1;verticalAlign=bottom;endArrow=open;dashed=1;endSize=8;curved=0;rounded=0;" edge="1" parent="1">
          <mxGeometry relative="1" as="geometry">
            <mxPoint x="439" y="220" as="sourcePoint" />
            <mxPoint x="299" y="220" as="targetPoint" />
          </mxGeometry>
        </mxCell>
        <mxCell id="IZtUaJsD1v50YrY6wFHG-8" value="Opt" style="shape=umlFrame;whiteSpace=wrap;html=1;pointerEvents=0;" vertex="1" parent="1">
          <mxGeometry x="69" y="250" width="300" height="120" as="geometry" />
        </mxCell>
        <mxCell id="IZtUaJsD1v50YrY6wFHG-9" value="[实例未绑定]" style="text;html=1;strokeColor=none;fillColor=none;align=center;verticalAlign=middle;whiteSpace=wrap;rounded=0;" vertex="1" parent="1">
          <mxGeometry x="76" y="281" width="94" height="30" as="geometry" />
        </mxCell>
        <mxCell id="IZtUaJsD1v50YrY6wFHG-10" value="err: 实例未绑定" style="html=1;verticalAlign=bottom;endArrow=open;dashed=1;endSize=8;curved=0;rounded=0;" edge="1" parent="1" source="IZtUaJsD1v50YrY6wFHG-25" target="IZtUaJsD1v50YrY6wFHG-1">
          <mxGeometry relative="1" as="geometry">
            <mxPoint x="290" y="330" as="sourcePoint" />
            <mxPoint x="210" y="330" as="targetPoint" />
          </mxGeometry>
        </mxCell>
        <mxCell id="IZtUaJsD1v50YrY6wFHG-11" value="Opt" style="shape=umlFrame;whiteSpace=wrap;html=1;pointerEvents=0;" vertex="1" parent="1">
          <mxGeometry x="69" y="400" width="300" height="120" as="geometry" />
        </mxCell>
        <mxCell id="IZtUaJsD1v50YrY6wFHG-12" value="[绑定vin不匹配]" style="text;html=1;strokeColor=none;fillColor=none;align=center;verticalAlign=middle;whiteSpace=wrap;rounded=0;" vertex="1" parent="1">
          <mxGeometry x="76" y="430" width="94" height="30" as="geometry" />
        </mxCell>
        <mxCell id="IZtUaJsD1v50YrY6wFHG-13" value="err: 绑定的vin不匹配" style="html=1;verticalAlign=bottom;endArrow=open;dashed=1;endSize=8;curved=0;rounded=0;" edge="1" parent="1">
          <mxGeometry relative="1" as="geometry">
            <mxPoint x="290" y="480" as="sourcePoint" />
            <mxPoint x="140" y="480" as="targetPoint" />
          </mxGeometry>
        </mxCell>
        <mxCell id="IZtUaJsD1v50YrY6wFHG-14" value="标记实例为空闲" style="html=1;verticalAlign=bottom;endArrow=block;curved=0;rounded=0;" edge="1" parent="1">
          <mxGeometry width="80" relative="1" as="geometry">
            <mxPoint x="290" y="600" as="sourcePoint" />
            <mxPoint x="440" y="600" as="targetPoint" />
            <mxPoint as="offset" />
          </mxGeometry>
        </mxCell>
        <mxCell id="IZtUaJsD1v50YrY6wFHG-15" value="标记完成" style="html=1;verticalAlign=bottom;endArrow=open;dashed=1;endSize=8;curved=0;rounded=0;" edge="1" parent="1">
          <mxGeometry relative="1" as="geometry">
            <mxPoint x="440" y="640" as="sourcePoint" />
            <mxPoint x="290" y="640" as="targetPoint" />
          </mxGeometry>
        </mxCell>
        <mxCell id="IZtUaJsD1v50YrY6wFHG-16" value="记录实例解绑时间" style="html=1;verticalAlign=bottom;endArrow=block;curved=0;rounded=0;" edge="1" parent="1">
          <mxGeometry width="80" relative="1" as="geometry">
            <mxPoint x="290" y="680" as="sourcePoint" />
            <mxPoint x="440" y="680" as="targetPoint" />
            <mxPoint as="offset" />
          </mxGeometry>
        </mxCell>
        <mxCell id="IZtUaJsD1v50YrY6wFHG-17" value="记录完成" style="html=1;verticalAlign=bottom;endArrow=open;dashed=1;endSize=8;curved=0;rounded=0;" edge="1" parent="1">
          <mxGeometry relative="1" as="geometry">
            <mxPoint x="440" y="720" as="sourcePoint" />
            <mxPoint x="290" y="720" as="targetPoint" />
          </mxGeometry>
        </mxCell>
        <mxCell id="IZtUaJsD1v50YrY6wFHG-18" value="解绑完成" style="html=1;verticalAlign=bottom;endArrow=open;dashed=1;endSize=8;curved=0;rounded=0;" edge="1" parent="1">
          <mxGeometry relative="1" as="geometry">
            <mxPoint x="290" y="747" as="sourcePoint" />
            <mxPoint x="140" y="747" as="targetPoint" />
          </mxGeometry>
        </mxCell>
        <mxCell id="IZtUaJsD1v50YrY6wFHG-19" value="向实例发送清理资源通知(如果需要）" style="html=1;verticalAlign=bottom;endArrow=block;curved=0;rounded=0;" edge="1" parent="1" target="IZtUaJsD1v50YrY6wFHG-4">
          <mxGeometry width="80" relative="1" as="geometry">
            <mxPoint x="290" y="560" as="sourcePoint" />
            <mxPoint x="370" y="560" as="targetPoint" />
          </mxGeometry>
        </mxCell>
        <mxCell id="IZtUaJsD1v50YrY6wFHG-21" value="" style="html=1;points=[[0,0,0,0,5],[0,1,0,0,-5],[1,0,0,0,5],[1,1,0,0,-5]];perimeter=orthogonalPerimeter;outlineConnect=0;targetShapes=umlLifeline;portConstraint=eastwest;newEdgeStyle={&quot;curved&quot;:0,&quot;rounded&quot;:0};" vertex="1" parent="1">
          <mxGeometry x="131" y="310" width="10" height="50" as="geometry" />
        </mxCell>
        <mxCell id="IZtUaJsD1v50YrY6wFHG-22" value="" style="html=1;points=[[0,0,0,0,5],[0,1,0,0,-5],[1,0,0,0,5],[1,1,0,0,-5]];perimeter=orthogonalPerimeter;outlineConnect=0;targetShapes=umlLifeline;portConstraint=eastwest;newEdgeStyle={&quot;curved&quot;:0,&quot;rounded&quot;:0};" vertex="1" parent="1">
          <mxGeometry x="131" y="460" width="10" height="50" as="geometry" />
        </mxCell>
        <mxCell id="IZtUaJsD1v50YrY6wFHG-26" value="" style="html=1;verticalAlign=bottom;endArrow=open;dashed=1;endSize=8;curved=0;rounded=0;" edge="1" parent="1" target="IZtUaJsD1v50YrY6wFHG-25">
          <mxGeometry relative="1" as="geometry">
            <mxPoint x="290" y="330" as="sourcePoint" />
            <mxPoint x="140" y="330" as="targetPoint" />
          </mxGeometry>
        </mxCell>
        <mxCell id="IZtUaJsD1v50YrY6wFHG-25" value="" style="html=1;points=[[0,0,0,0,5],[0,1,0,0,-5],[1,0,0,0,5],[1,1,0,0,-5]];perimeter=orthogonalPerimeter;outlineConnect=0;targetShapes=umlLifeline;portConstraint=eastwest;newEdgeStyle={&quot;curved&quot;:0,&quot;rounded&quot;:0};" vertex="1" parent="1">
          <mxGeometry x="286" y="300" width="10" height="50" as="geometry" />
        </mxCell>
        <mxCell id="IZtUaJsD1v50YrY6wFHG-27" value="" style="html=1;points=[[0,0,0,0,5],[0,1,0,0,-5],[1,0,0,0,5],[1,1,0,0,-5]];perimeter=orthogonalPerimeter;outlineConnect=0;targetShapes=umlLifeline;portConstraint=eastwest;newEdgeStyle={&quot;curved&quot;:0,&quot;rounded&quot;:0};" vertex="1" parent="1">
          <mxGeometry x="286" y="450" width="10" height="50" as="geometry" />
        </mxCell>
      </root>
    </mxGraphModel>
  </diagram>
</mxfile>
